<svg xmlns="http://www.w3.org/2000/svg" viewBox="0 0 40 40">
<defs><linearGradient id="bg" x1="0" y1="0" x2="0" y2="1"><stop offset="0" stop-color="#170836"/><stop offset="1" stop-color="#4b1273"/></linearGradient><linearGradient id="sun" x1="0" y1="0" x2="1" y2="1"><stop offset="0" stop-color="#ffe066"/><stop offset=".5" stop-color="#ff7a6e"/><stop offset="1" stop-color="#e03aa6"/></linearGradient></defs>
<rect width="40" height="40" rx="7" fill="url(#bg)"/>
<circle cx="20" cy="21.5" r="11" fill="none" stroke="#ffffff" stroke-opacity=".14" stroke-width="3.2"/>
<path d="M20 10.5 A11 11 0 1 1 9.2 23.6" fill="none" stroke="url(#sun)" stroke-width="3.2" stroke-linecap="round"/>
<path d="M20 10.6 c-1.6-2.4-3.9-3.3-6.2-2.6 c2.1.5 3.6 1.4 4.6 2.8 z" fill="#5fd38d"/>
<path d="M20 10.6 c1.4-2.3 3.6-3.4 6-3 c-2 .7-3.4 1.7-4.4 3.2 z" fill="#3fb877"/>
<rect x="19.2" y="6.2" width="1.6" height="4.6" rx=".8" fill="#5fd38d"/>
<circle cx="20" cy="21.5" r="1.7" fill="#ffe066"/>
<path d="M20 21.5 L20 15.8" stroke="#ffe066" stroke-width="1.4" stroke-linecap="round"/>
</svg>
